<svg width="56" height="70" viewBox="0 0 56 70" fill="none" xmlns="http://www.w3.org/2000/svg">
<path fill-rule="evenodd" clip-rule="evenodd" d="M3.03577 34.6657C2.97256 36.2273 2.64832 37.7673 2.07649 39.2217L0.562417 43.073C-1.50095 48.3214 2.36822 54 8.00771 54H48.0015C53.641 54 57.5102 48.3214 55.4468 43.073L53.9327 39.2218C53.3609 37.7673 53.0367 36.2273 52.9734 34.6657L52.5684 24.6596C52.4992 11.0962 41.5957 0 28.0046 0C14.4132 0 3.50953 11.0966 3.44077 24.6604L3.03577 34.6657ZM7.66046 41.417C8.47736 39.3392 8.94056 37.1392 9.03086 34.9083L9.44044 24.7899C9.44044 14.4127 17.7519 6 28.0046 6C38.2573 6 46.5687 14.4123 46.5687 24.7895L46.9784 34.9083C47.0687 37.1392 47.5319 39.3392 48.3488 41.417L49.8628 45.2683C50.3787 46.5804 49.4114 48 48.0015 48H8.00771C6.59784 48 5.63054 46.5804 6.14639 45.2683L7.66046 41.417Z" fill="white"/>
<path d="M41.0809 61.2153C41.779 59.5639 40.5848 57.8471 38.8234 57.512C37.3402 57.2298 35.9462 58.2471 35.2215 59.5716C34.7313 60.4676 34.0817 61.2716 33.2982 61.939C31.8195 63.1987 29.9566 63.8927 28.0305 63.9013C26.1044 63.91 24.2357 63.2329 22.7461 61.9866C21.9573 61.3266 21.3009 60.5289 20.8031 59.6379C20.0664 58.3195 18.6629 57.3142 17.1818 57.6097C15.4238 57.9606 14.2449 59.6875 14.9573 61.3326C15.8544 63.4045 17.2194 65.2482 18.9583 66.7031C21.5231 68.849 24.7407 70.0148 28.0569 69.9999C31.3732 69.9849 34.5806 68.7901 37.1266 66.6212C38.8528 65.1507 40.2017 63.295 41.0809 61.2153Z" fill="white"/>
</svg>
